$MeshFormat
2.2 0 8
$EndMeshFormat
$Nodes
31
1 0 0 0
2 0.5 0 0
3 1 0 0
4 1 1 0
5 0.5 1 0
6 0 1 0
7 0.249999999999347 0 0
8 0.75 0 0
9 1 0.25 0
10 1 0.5 0
11 1 0.75 0
12 0.75 1 0
13 0.25 1 0
14 0 0.7500000000003465 0
15 0 0.5000000000020591 0
16 0 0.2500000000010404 0
17 0.5 0.2499999999994121 0
18 0.5 0.499999999998694 0
19 0.5 0.7499999999993416 0
20 0.2165063509446265 0.6250000000012029 0
21 0.2834936490545122 0.3749999999990531 0
22 0.3165794292091015 0.8356370834603559 0
23 0.1834205707906026 0.1643629165397101 0
24 0.3555044837979704 0.1449530334307299 0
25 0.1444955162017958 0.8550469665691218 0
26 0.7165063509454878 0.3749999999990531 0
27 0.7755793657475393 0.6250000000000001 0
28 0.8165794292092108 0.1643629165395496 0
29 0.6816973058420845 0.8360101437023844 0
30 0.8513644230760122 0.8517453896181306 0
31 0.6444955162018819 0.1449530334308186 0
$EndNodes
$Elements
70
1 15 2 1 1 1
2 15 2 2 2 2
3 15 2 3 3 3
4 15 2 4 4 4
5 15 2 5 5 5
6 15 2 6 6 6
7 1 2 1 1 1 7
8 1 2 1 1 7 2
9 1 2 2 2 2 8
10 1 2 2 2 8 3
11 1 2 3 3 3 9
12 1 2 3 3 9 10
13 1 2 3 3 10 11
14 1 2 3 3 11 4
15 1 2 4 4 4 12
16 1 2 4 4 12 5
17 1 2 5 5 5 13
18 1 2 5 5 13 6
19 1 2 6 6 6 14
20 1 2 6 6 14 15
21 1 2 6 6 15 16
22 1 2 6 6 16 1
23 1 2 7 7 2 17
24 1 2 7 7 17 18
25 1 2 7 7 18 19
26 1 2 7 7 19 5
27 2 2 1 1 18 19 20
28 2 2 1 1 15 16 21
29 2 2 1 1 18 20 21
30 2 2 1 1 20 15 21
31 2 2 1 1 20 19 22
32 2 2 1 1 21 16 23
33 2 2 1 1 17 18 21
34 2 2 1 1 14 15 20
35 2 2 1 1 1 7 23
36 2 2 1 1 16 1 23
37 2 2 1 1 5 13 22
38 2 2 1 1 19 5 22
39 2 2 1 1 17 21 24
40 2 2 1 1 14 20 25
41 2 2 1 1 21 23 24
42 2 2 1 1 20 22 25
43 2 2 1 1 7 2 24
44 2 2 1 1 6 14 25
45 2 2 1 1 13 6 25
46 2 2 1 1 2 17 24
47 2 2 1 1 23 7 24
48 2 2 1 1 22 13 25
49 2 2 2 2 9 10 26
50 2 2 2 2 19 18 27
51 2 2 2 2 26 10 27
52 2 2 2 2 18 26 27
53 2 2 2 2 9 26 28
54 2 2 2 2 19 27 29
55 2 2 2 2 10 11 27
56 2 2 2 2 18 17 26
57 2 2 2 2 8 3 28
58 2 2 2 2 3 9 28
59 2 2 2 2 12 5 29
60 2 2 2 2 5 19 29
61 2 2 2 2 27 11 30
62 2 2 2 2 26 17 31
63 2 2 2 2 29 27 30
64 2 2 2 2 28 26 31
65 2 2 2 2 11 4 30
66 2 2 2 2 4 12 30
67 2 2 2 2 2 8 31
68 2 2 2 2 17 2 31
69 2 2 2 2 8 28 31
70 2 2 2 2 12 29 30
$EndElements
$Periodic
7
0 3 1
Affine 1 0 0 1 0 1 0 0 0 0 1 0 0 0 0 1
1
3 1
0 4 6
Affine 1 0 0 1 0 1 0 0 0 0 1 0 0 0 0 1
1
4 6
0 5 2
Affine 1 0 0 0 0 1 0 1 0 0 1 0 0 0 0 1
1
5 2
0 6 1
Affine 1 0 0 0 0 1 0 1 0 0 1 0 0 0 0 1
1
6 1
1 3 6
Affine 1 0 0 1 0 1 0 0 0 0 1 0 0 0 0 1
5
3 1
4 6
9 16
10 15
11 14
1 4 2
Affine 1 0 0 0 0 1 0 1 0 0 1 0 0 0 0 1
3
4 3
5 2
12 8
1 5 1
Affine 1 0 0 0 0 1 0 1 0 0 1 0 0 0 0 1
3
5 2
6 1
13 7
$EndPeriodic
